<?xml version="1.0" encoding="utf-8"?>
<!-- Generator: Adobe Illustrator 17.1.0, SVG Export Plug-In . SVG Version: 6.00 Build 0)  -->
<!DOCTYPE svg PUBLIC "-//W3C//DTD SVG 1.0//EN" "http://www.w3.org/TR/2001/REC-SVG-20010904/DTD/svg10.dtd">
<svg version="1.0" id="Ebene_1" xmlns="http://www.w3.org/2000/svg" xmlns:xlink="http://www.w3.org/1999/xlink" x="0px" y="0px"
	 viewBox="0 0 691.5 207.1" enable-background="new 0 0 691.5 207.1" xml:space="preserve">
<g>
	<path fill-rule="evenodd" clip-rule="evenodd" fill="#439539" d="M129.9,62.5l-14.3-8.2L77,32c-25.6-14.8-48.3-2.5-48.5,39.1l0,1.2
		L73.6,94c6.1,2.9,1.9,15.1-7.5,10.5L28.5,86.1L28.2,134c-0.2,34.6,18.5,57.2,47,42.7l40.5-23.4l14.1-8.2
		c-12.2-10.1-16.8-34.2-14-54.2L76.5,72C70.4,69,74.7,56.9,84,61.5l34.7,17C121.2,71.4,124.9,65.6,129.9,62.5"/>
	<path fill-rule="evenodd" clip-rule="evenodd" fill="#717073" d="M156.1,77.6l-14.7-8.5c-22.1,8.3-17.4,65.3-0.1,69.4l12.9-7.5
		C181.3,115.4,176.4,89.3,156.1,77.6"/>
	<g>
		<polygon fill-rule="evenodd" clip-rule="evenodd" fill="#717073" points="444.7,143.2 414.2,64.5 437.9,64.5 454.2,113.1 
			470.6,64.5 493.6,64.5 463.2,143.2 		"/>
		<path fill-rule="evenodd" clip-rule="evenodd" fill="#717073" d="M409.5,44.9c0,3.6-1.2,6.4-3.6,8.5c-4.8,4.2-13.3,4.2-18.1,0
			c-2.4-2.1-3.6-4.9-3.6-8.5c0-3.6,1.2-6.4,3.6-8.5c4.8-4.2,13.3-4.2,18.1,0C408.3,38.4,409.5,41.3,409.5,44.9z"/>
		<rect x="385.7" y="64.5" fill-rule="evenodd" clip-rule="evenodd" fill="#717073" width="22.3" height="78.7"/>
		<g>
			<path fill-rule="evenodd" clip-rule="evenodd" fill="#717073" d="M525.1,44.9c0,3.6-1.2,6.4-3.6,8.5c-4.8,4.2-13.3,4.2-18.1,0
				c-2.4-2.1-3.6-4.9-3.6-8.5c0-3.6,1.2-6.4,3.6-8.5c4.8-4.2,13.3-4.2,18.1,0C523.9,38.4,525.1,41.3,525.1,44.9z"/>
			<rect x="501.4" y="64.5" fill-rule="evenodd" clip-rule="evenodd" fill="#717073" width="22.3" height="78.7"/>
		</g>
		<path fill-rule="evenodd" clip-rule="evenodd" fill="#717073" d="M377.1,84c-1.7-0.4-3.7-0.8-5.9-1.3
			c-16.7-3.4-18.1,2.8-18.1,17.3v43.2h-22.3V94c0-21.4,2.9-31.1,32.3-31.1c1.2,0,2.6,0.1,4.3,0.2c1.7,0.1,3.4,0.3,5.1,0.6
			c1.5,0.2,3,0.5,4.6,0.8V84z"/>
		<path fill-rule="evenodd" clip-rule="evenodd" fill="#717073" d="M264.7,103.8c0-5.7,0.9-11,2.8-16.1c1.8-5,4.5-9.4,8-13.2
			c3.5-3.7,7.7-6.7,12.7-8.9c5-2.2,10.7-3.3,17-3.3c4.2,0,8,0.4,11.5,1.1c1.9,0.4,3.7,0.9,5.5,1.5v19.5c-2.1-0.8-4.4-1.5-6.9-2.1
			c-2.5-0.6-5.3-0.9-8.4-0.9c-6.6,0-11.5,2-14.7,6.1c-3.2,4.1-4.9,9.5-4.9,16.1c0,7.1,1.5,12.6,4.6,16.5c3,3.9,8.3,5.8,15.9,5.8
			c2.7,0,5.6-0.2,8.7-0.7c2-0.3,3.9-0.8,5.7-1.3v19.2c-1.2,0.3-2.4,0.6-3.7,0.9c-3.9,0.8-8.2,1.2-12.9,1.2c-7.2,0-13.4-1.1-18.5-3.2
			c-5.2-2.1-9.4-5.1-12.8-8.7c-3.3-3.7-5.8-8.1-7.3-13.1C265.4,115.2,264.7,109.7,264.7,103.8z"/>
		<path fill-rule="evenodd" clip-rule="evenodd" fill="#717073" d="M226.9,127.2c4.1,0,7-0.4,8.7-1.2c1.7-0.8,2.5-2.3,2.5-4.6
			c0-1.8-1.1-3.4-3.3-4.7c-2.2-1.3-5.5-2.9-10-4.6c-3.5-1.3-6.7-2.6-9.5-4c-2.8-1.4-5.3-3.1-7.3-5c-2-1.9-3.5-4.3-4.6-7
			c-1.1-2.7-1.6-5.9-1.6-9.7c0-7.4,2.7-13.2,8.2-17.5c5.5-4.3,13-6.4,22.6-6.4c4.8,0,9.4,0.4,13.8,1.3c2.2,0.4,4.1,0.9,5.8,1.3v18.6
			c-2.4-0.8-4.9-1.5-7.7-2.1c-3-0.7-6.5-1-10.2-1c-7,0-10.5,1.9-10.5,5.8c0,0.9,0.1,1.7,0.4,2.4c0.3,0.7,0.9,1.4,1.8,2
			c0.9,0.6,2.1,1.3,3.7,2.1c1.5,0.8,3.5,1.6,5.9,2.5c4.9,1.8,8.9,3.6,12.1,5.4c3.2,1.7,5.7,3.7,7.6,5.7c1.8,2,3.1,4.3,3.9,6.8
			c0.7,2.5,1.1,5.4,1.1,8.6c0,7.7-2.9,13.6-8.7,17.6c-5.8,4-14.1,6-24.7,6c-7,0-12.8-0.6-17.4-1.8c-2.2-0.6-4.1-1.1-5.6-1.6v-19.4
			c3.7,1.4,7.5,2.6,11.4,3.4C219.1,126.7,223.1,127.2,226.9,127.2z"/>
		<path fill="#717073" d="M581.2,144c-3.4,0.8-7.5,1.2-12.4,1.2c-6.2,0-11.4-0.8-15.5-2.5c-4.1-1.7-7.4-4-9.8-6.9
			c-2.5-3-4.2-6.5-5.1-10.8c-1-4.2-1.5-8.9-1.5-14V44.5l22.9-3.6v23.3h17.5v18.7h-17.5v27.8c0,4.7,0.8,8.5,2.5,11.3
			c1.7,2.8,5.1,4.2,10.2,4.2c2.5,0,3-0.2,5.6-0.7L581.2,144z"/>
		<path fill="#717073" d="M663.3,103.6c0,6.2-0.9,11.9-2.8,17.1c-1.8,5.2-4.5,9.6-8,13.2c-3.5,3.7-7.7,6.5-12.5,8.5
			c-4.9,2-10.3,3-16.4,3c-5.9,0-11.3-1-16.2-3c-4.9-2-9-4.8-12.5-8.5c-3.5-3.7-6.2-8.1-8.1-13.2c-1.9-5.2-2.9-10.9-2.9-17.1
			c0-6.2,1-11.9,3-17c2-5.1,4.8-9.5,8.3-13.1s7.7-6.4,12.6-8.4c4.9-2,10.2-3,15.9-3c5.8,0,11.2,1,16.1,3c4.9,2,9,4.8,12.5,8.4
			c3.5,3.6,6.2,8,8.1,13.1C662.3,91.7,663.3,97.4,663.3,103.6z M639.9,103.6c0-6.9-1.4-12.4-4.2-16.3c-2.8-4-6.8-5.9-12.1-5.9
			s-9.3,2-12.1,5.9c-2.9,4-4.3,9.4-4.3,16.3c0,6.9,1.4,12.4,4.3,16.5c2.9,4.1,6.9,6.1,12.1,6.1s9.2-2,12.1-6.1
			C638.5,116,639.9,110.5,639.9,103.6z"/>
	</g>
</g>
</svg>
