<?xml version="1.0" encoding="utf-8"?>
<!-- Generator: Adobe Illustrator 17.1.0, SVG Export Plug-In . SVG Version: 6.00 Build 0)  -->
<!DOCTYPE svg PUBLIC "-//W3C//DTD SVG 1.1//EN" "http://www.w3.org/Graphics/SVG/1.1/DTD/svg11.dtd">
<svg version="1.1" id="Ebene_1" xmlns="http://www.w3.org/2000/svg" xmlns:xlink="http://www.w3.org/1999/xlink" x="0px" y="0px"
	 viewBox="0 0 609.4 153" enable-background="new 0 0 609.4 153" xml:space="preserve">
<path fill-rule="evenodd" clip-rule="evenodd" fill="#439439" d="M100.3,38.7l-13.1-7.6L51.8,10.7C28.3-2.8,7.5,8.4,7.3,46.6l0,1.1
	l41.4,19.9c5.6,2.7,1.7,13.9-6.9,9.7L7.2,60.4l-0.2,44c-0.2,31.8,17,52.6,43.1,39.2l37.1-21.4l13-7.5C89,105.4,84.8,83.2,87.4,64.8
	L51.3,47.4c-5.6-2.7-1.7-13.9,6.9-9.7l31.9,15.6C92.4,46.9,95.8,41.6,100.3,38.7"/>
<path fill-rule="evenodd" clip-rule="evenodd" fill="#FFFFFF" d="M124.3,52.6l-13.5-7.8c-20.3,7.6-16,59.9-0.1,63.7l11.9-6.8
	C147.5,87.3,143,63.4,124.3,52.6"/>
<g>
	<polygon fill-rule="evenodd" clip-rule="evenodd" fill="#FFFFFF" points="390.1,113.1 362,40.7 383.8,40.7 398.8,85.4 413.9,40.7 
		435.1,40.7 407.1,113.1 	"/>
	<path fill-rule="evenodd" clip-rule="evenodd" fill="#FFFFFF" d="M357.6,22.6c0,3.3-1.1,5.9-3.3,7.8c-4.4,3.8-12.2,3.8-16.7,0
		c-2.2-1.9-3.3-4.5-3.3-7.8c0-3.3,1.1-5.9,3.3-7.8c4.4-3.8,12.2-3.8,16.7,0C356.5,16.6,357.6,19.3,357.6,22.6z"/>
	<rect x="335.7" y="40.7" fill-rule="evenodd" clip-rule="evenodd" fill="#FFFFFF" width="20.5" height="72.4"/>
	<g>
		<path fill-rule="evenodd" clip-rule="evenodd" fill="#FFFFFF" d="M464.1,22.6c0,3.3-1.1,5.9-3.3,7.8c-4.4,3.8-12.2,3.8-16.7,0
			c-2.2-1.9-3.3-4.5-3.3-7.8c0-3.3,1.1-5.9,3.3-7.8c4.4-3.8,12.2-3.8,16.7,0C463,16.6,464.1,19.3,464.1,22.6z"/>
		<rect x="442.3" y="40.7" fill-rule="evenodd" clip-rule="evenodd" fill="#FFFFFF" width="20.5" height="72.4"/>
	</g>
	<path fill-rule="evenodd" clip-rule="evenodd" fill="#FFFFFF" d="M327.8,58.6c-1.6-0.4-3.4-0.8-5.4-1.2
		c-15.4-3.1-16.7,2.6-16.7,15.9v39.8h-20.5V67.8c0-19.7,2.7-28.7,29.8-28.7c1.1,0,2.4,0.1,4,0.2c1.6,0.1,3.1,0.3,4.7,0.6
		c1.4,0.2,2.8,0.4,4.2,0.7V58.6z"/>
	<path fill-rule="evenodd" clip-rule="evenodd" fill="#FFFFFF" d="M224.2,76.9c0-5.2,0.8-10.2,2.5-14.8c1.7-4.6,4.2-8.7,7.4-12.1
		c3.2-3.4,7.1-6.2,11.7-8.2c4.6-2,9.8-3,15.7-3c3.9,0,7.4,0.3,10.6,1c1.7,0.4,3.4,0.8,5.1,1.4v18c-1.9-0.7-4-1.4-6.3-1.9
		c-2.3-0.6-4.9-0.8-7.7-0.8c-6.1,0-10.6,1.9-13.6,5.6c-3,3.8-4.5,8.7-4.5,14.9c0,6.5,1.4,11.6,4.2,15.2c2.8,3.6,7.7,5.4,14.7,5.4
		c2.5,0,5.1-0.2,8-0.7c1.8-0.3,3.6-0.7,5.2-1.2v17.7c-1.1,0.3-2.2,0.5-3.4,0.8c-3.6,0.7-7.5,1.1-11.8,1.1c-6.6,0-12.3-1-17.1-3
		c-4.8-2-8.7-4.7-11.8-8.1c-3.1-3.4-5.3-7.4-6.7-12.1C224.9,87.3,224.2,82.3,224.2,76.9z"/>
	<path fill-rule="evenodd" clip-rule="evenodd" fill="#FFFFFF" d="M189.5,98.4c3.8,0,6.4-0.4,8-1.1c1.6-0.7,2.3-2.2,2.3-4.3
		c0-1.7-1-3.1-3-4.3c-2-1.2-5.1-2.6-9.2-4.2c-3.2-1.2-6.1-2.4-8.7-3.7c-2.6-1.3-4.8-2.8-6.7-4.6c-1.8-1.8-3.3-3.9-4.3-6.4
		c-1-2.5-1.5-5.5-1.5-9c0-6.8,2.5-12.2,7.6-16.1c5.1-3.9,12-5.9,20.8-5.9c4.4,0,8.6,0.4,12.7,1.2c2,0.4,3.8,0.8,5.4,1.2v17.1
		c-2.2-0.7-4.6-1.4-7.1-2c-2.8-0.6-5.9-1-9.4-1c-6.4,0-9.6,1.8-9.6,5.4c0,0.8,0.1,1.6,0.4,2.2c0.3,0.6,0.8,1.3,1.7,1.9
		c0.8,0.6,2,1.2,3.4,1.9c1.4,0.7,3.2,1.5,5.4,2.3c4.5,1.7,8.2,3.3,11.2,4.9c2.9,1.6,5.3,3.4,7,5.2c1.7,1.9,2.9,4,3.6,6.3
		c0.7,2.3,1,4.9,1,8c0,7.1-2.7,12.6-8.1,16.2c-5.4,3.7-13,5.5-22.8,5.5c-6.4,0-11.8-0.6-16-1.7c-2-0.5-3.8-1-5.2-1.4V94.1
		c3.4,1.3,6.9,2.4,10.5,3.1C182.3,98,185.9,98.4,189.5,98.4z"/>
	<path fill="#FFFFFF" d="M515.8,113.8c-3.1,0.7-6.9,1.1-11.5,1.1c-5.8,0-10.5-0.8-14.3-2.3c-3.8-1.5-6.8-3.6-9.1-6.4
		c-2.3-2.7-3.8-6-4.7-9.9c-0.9-3.9-1.3-8.2-1.3-12.9V22.2l21.1-3.3v21.5h16.1v17.2H496v25.6c0,4.3,0.8,7.8,2.3,10.4
		c1.6,2.6,4.7,3.9,9.4,3.9c2.3,0,2.8-0.2,5.2-0.6L515.8,113.8z"/>
	<path fill="#FFFFFF" d="M591.4,76.7c0,5.7-0.8,11-2.5,15.7c-1.7,4.8-4.2,8.8-7.4,12.2c-3.2,3.4-7.1,6-11.5,7.8
		c-4.5,1.8-9.5,2.8-15.1,2.8c-5.5,0-10.5-0.9-14.9-2.8c-4.5-1.8-8.3-4.5-11.5-7.8c-3.2-3.4-5.7-7.4-7.5-12.2
		c-1.8-4.8-2.7-10-2.7-15.7c0-5.7,0.9-11,2.8-15.7c1.8-4.7,4.4-8.7,7.6-12.1c3.3-3.3,7.1-5.9,11.6-7.8c4.5-1.8,9.4-2.8,14.6-2.8
		c5.4,0,10.3,0.9,14.8,2.8c4.5,1.8,8.3,4.4,11.5,7.8c3.2,3.3,5.7,7.3,7.5,12.1C590.5,65.7,591.4,71,591.4,76.7z M569.9,76.7
		c0-6.4-1.3-11.4-3.9-15c-2.6-3.6-6.3-5.5-11.1-5.5s-8.5,1.8-11.2,5.5c-2.6,3.7-4,8.7-4,15c0,6.4,1.3,11.4,4,15.2
		c2.6,3.7,6.4,5.6,11.2,5.6s8.5-1.9,11.1-5.6C568.6,88.1,569.9,83.1,569.9,76.7z"/>
</g>
</svg>
